<?xml version="1.0" standalone="no"?>
<!DOCTYPE svg PUBLIC "-//W3C//DTD SVG 20010904//EN"
 "http://www.w3.org/TR/2001/REC-SVG-20010904/DTD/svg10.dtd">
<svg version="1.0" xmlns="http://www.w3.org/2000/svg"
 width="300.000000pt" height="300.000000pt" viewBox="0 0 300.000000 300.000000"
 preserveAspectRatio="xMidYMid meet">
<metadata>
Created by potrace 1.10, written by Peter Selinger 2001-2011
</metadata>
<g transform="translate(0.000000,300.000000) scale(0.100000,-0.100000)"
fill="#000000" stroke="none">
<path d="M1596 2109 c-14 -17 -26 -35 -26 -40 0 -8 -71 -213 -145 -419 -83
-231 -257 -727 -271 -773 -15 -46 -14 -49 5 -66 16 -14 40 -19 104 -20 110 -3
124 8 166 131 18 51 36 101 42 110 5 10 9 24 9 33 0 8 6 29 14 47 15 34 82
219 108 298 9 25 65 186 127 358 61 172 111 319 111 326 0 33 -35 46 -127 46
-90 0 -92 -1 -117 -31z m219 -16 c-4 -10 -107 -300 -229 -645 l-221 -628 -104
0 c-94 0 -103 1 -96 18 5 9 108 299 229 644 l221 628 104 0 c94 0 103 -1 96
-17z"/>
<path d="M1028 1923 c-10 -2 -18 -9 -18 -14 0 -5 -7 -9 -15 -9 -8 0 -23 -4
-33 -10 -9 -5 -60 -30 -112 -54 -52 -24 -149 -69 -215 -101 -66 -31 -157 -74
-202 -96 -45 -21 -85 -39 -89 -39 -5 0 -21 -12 -36 -27 -26 -25 -28 -32 -28
-106 0 -95 5 -101 125 -157 44 -21 138 -65 209 -99 70 -33 129 -61 131 -61 2
0 63 -29 137 -64 174 -83 175 -83 199 -55 15 17 19 37 19 93 0 109 17 95 -310
248 -47 22 -112 53 -144 68 l-59 29 99 47 c54 25 155 73 223 105 68 33 127 59
131 59 5 0 20 14 35 32 25 30 27 37 23 108 -2 55 -8 81 -20 93 -17 17 -20 18
-50 10z m42 -105 l-1 -93 -244 -113 c-135 -63 -259 -119 -275 -125 -35 -13
-38 -23 -9 -32 12 -4 103 -45 203 -92 268 -126 306 -143 316 -143 6 0 10 -40
10 -95 0 -52 -2 -95 -4 -95 -2 0 -44 19 -92 43 -49 24 -218 104 -376 177
l-288 134 0 88 c0 54 4 88 10 88 12 0 615 284 690 325 25 13 48 24 53 24 4 1
7 -41 7 -91z"/>
<path d="M1926 1911 c-12 -13 -18 -41 -21 -95 -5 -100 5 -111 160 -182 230
-106 335 -157 335 -165 0 -7 -201 -109 -214 -109 -23 0 -258 -124 -270 -142
-21 -32 -15 -170 8 -193 22 -22 31 -19 306 112 52 25 122 58 155 73 210 96
315 151 324 169 6 11 11 51 11 90 0 60 -3 74 -26 100 -14 17 -30 31 -34 31 -5
0 -67 28 -137 61 -367 176 -539 256 -560 263 -13 4 -26 -1 -37 -13z m131 -59
c65 -32 234 -112 375 -178 l257 -119 1 -86 0 -86 -77 -36 c-43 -20 -208 -97
-368 -172 -159 -75 -296 -139 -303 -142 -10 -4 -12 15 -10 87 l3 92 272 127
c244 113 297 141 263 141 -6 0 -125 54 -265 120 -141 66 -260 120 -265 120 -6
0 -10 39 -10 95 0 52 2 95 4 95 2 0 57 -26 123 -58z"/>
</g>
</svg>
